<?xml version="1.0" encoding="UTF-8"?><svg xmlns="http://www.w3.org/2000/svg" xmlns:xlink="http://www.w3.org/1999/xlink" height="476.1" preserveAspectRatio="xMidYMid meet" version="1.0" viewBox="-5.2 0.0 427.0 476.1" width="427.0" zoomAndPan="magnify"><g id="change1_1"><path d="M220.72,476.11c-1.38,0.01-2.79,0.02-4.26,0.02c-22.06,0-44.28-1.28-66.05-3.81 c-68.15-7.92-113.7-25.83-114.12-26.01l-6.75-2.68l0.11-7.44c0.6-40.72-11.38-104.84-23.31-143.31 c-11.56-37.23-7.26-75.73,12.45-111.34c15.97-28.87,23.28-61.12,26.97-118.97c1.46-22.94,6.15-39.96,13.92-50.6 C65.16,4.47,74.02,0,83.38,0c4.77,0,9.5,1.18,13.69,3.4c44.53,23.62,152.99,122.29,166.67,134.81c7.07,4.32,29.02,18,37.78,26.77 c9.43,9.41,11.99,31.39,12.66,44.59c70.72,82.51,104.98,216.36,105.32,217.71l2.31,9.25l-8.85,3.45 c-57.78,22.5-119.67,34.61-183.95,36.01L220.72,476.11z" fill="#1F7DD5"/></g><g id="change2_1"><path d="M264.26,231.62c-10.65-18.74-28.59-42.08-52.11-67.84c0,0-0.01,0-0.01-0.01c0,0,0-0.01-0.01-0.01 c2.19,8.57,5.07,21.13,5.07,27.47c0,10.1-12.5,39.09-13.03,40.33l-6.09,14.08l1.77-15.25c0.02-0.18,2.15-18.91,0.01-32.16 c-2.04-12.62-7.4-50.36-8.21-56.05c-20.16-20.48-41.97-40.52-60.54-55.66c-0.22,5.65-0.44,15.35,0.14,21.19 c0.92,9.16-10.38,36.94-11.67,40.08l-5.26,12.78l0.91-13.79c0.02-0.33,2.14-33.32-1.71-43.83c-3.61-9.86-1.25-25.41-0.37-30.24 c-6.19-4.4-11.28-7.56-15.1-9.35c-8.49-3.97-16.33-4.66-23.3-2.06c-10.54,3.93-16,14.21-16.95,16.13c0,0.01,0,0.01,0,0.01v0.01 c-4.13,51.37-11.94,82.14-27.57,110.4c-17.93,32.41-21.87,67.4-11.4,101.16c12.08,38.92,24.22,103.68,23.92,145.78 c8.06,3.01,49.35,17.62,109.33,24.58c21.52,2.49,47.07,4.15,75.47,3.6c0.01,0,0.02,0,0.02,0c44.75-8.31,77.39-28.32,97.01-59.47 c2.39-3.79,4.53-7.66,6.44-11.59C312.68,340.83,285.2,268.43,264.26,231.62z M158.51,135.56c3.2,1.29,6.11,3.32,8.56,5.76l1.7,1.94 c0.59,0.65,1.03,1.38,1.52,2.08c1.01,1.39,1.74,2.93,2.46,4.47c0.4,0.75,0.63,1.56,0.91,2.37c0.26,0.79,0.5,1.6,0.72,2.4 c0.33,1.65,0.6,3.31,0.7,4.98c-1.05-1.36-1.87-2.75-2.74-4.1c-0.46-0.66-0.93-1.31-1.36-1.97c-14.72,2.26-16.96-16.17-17-16.56 c-1.71-0.97-3.51-1.86-5.48-2.63C151.83,133.65,155.33,134.3,158.51,135.56z M266.81,394.14c-42.12,11.11-78.13,14.82-107.43,14.82 c-21.82,0-39.92-2.06-54.05-4.64c-36.03-6.6-54.37-17.68-55.14-18.15l-0.8-0.5l-0.22-0.92c-9.42-40.11-12.77-53.54-14.76-61.57 c-2.56-10.25-3.09-12.39-11.37-50.17c-9-41.1,8.26-59.87,24.32-68.38c8.86-4.7,19.16-6.93,29.76-6.45 c34.42,1.53,65.91,12.69,93.62,33.16c22.1,16.34,41.83,38.6,58.65,66.16c28.56,46.83,38.96,93.49,39.06,93.96l0.46,2.13 L266.81,394.14z M262.55,390.58c-70.97,18.24-123.98,15.18-156.11,9.34c-29.36-5.33-47.02-13.9-52.24-16.7l7.32-19.16l12.82,24.79 l13.3-21.87l14.82,28.47l14.1-24.67l13.89,28.86l17.54-26.59l17.06,27.18l18.21-26.64l17.77,25.72l16.87-27.81l16.42,22.97 l13.25-25.9L262.55,390.58z M234.78,343.96v-23.45l-21.41-2.67l-1.31-28.22l-25.68,2.38l-3.61-33.38l-30.06,10.21l-12.18-35.95 l-25.04,22.36l-16.04-36.33l-22.08,32.5l-19.81-36.23l-10.13,37.13l-15.94-17.85v26.24l-6.26-5.16c-1.23-27,11.9-40.34,24.27-46.91 c8.14-4.31,17.63-6.36,27.43-5.93c75.87,3.39,122.65,54.65,148.54,97.06c9.95,16.29,17.67,32.57,23.49,46.84L234.78,343.96z" fill="#EAEAEA"/></g><g id="change3_1"><path d="M298.67,181.68l6.65,35.04c37.31,43.6,45.63,73.74,45.63,73.74v81.96l-17.25,13.58 c5.79-55.98-27.5-126.54-27.5-126.54l19.05,14.7c-20.6-36.01-47.14-52.8-47.14-52.8c21.52-12.4,14.19-47.15,14.19-47.15 C298.77,175.79,298.67,181.68,298.67,181.68z M132.97,312.38c-3.4,7.7-9.65,22.79-13.57,37.88c0,0-9.51-26.45-2.77-54.32 c-1.01-0.88-2.04-1.73-3.06-2.56c-2.32,5.04-10.53,23.39-15.31,41.77c0,0-9.37-26.04-2.94-53.66c-1.15-0.58-2.32-1.11-3.49-1.62 c-3.51,8.14-9.05,21.96-12.65,35.79c0,0-6.66-18.52-4.89-40.89c-0.83-0.11-1.65-0.23-2.48-0.31c-21.98-2.28-37.35,8.68-41.22,11.8 c5.34,24.31,6.05,27.11,8.22,35.86c1.87,7.54,4.94,19.84,13.1,54.45l9-23.55l13.76,26.62l13.28-21.85L102.65,386l14.27-24.95 l9.54,19.84c9.01-25.47,17.45-46.91,19.47-52.02C141.63,322.89,137.31,317.4,132.97,312.38z M243.62,134.05h-18.93l37.87,18.8 L243.62,134.05z M58.47,68.06c0,0,8.5-26.45,22.68-27.18c14.18-0.73,32.78,13.59,32.78,13.59S103.66,38.06,86.2,29.97 c0,0,15,3.06,25.07,10.92c0,0-4.64-16.14-17.17-24.21l-5.85-5.76c0,0-18.18-0.44-23.5,13.96s-7.97,26.36-7.97,26.36L58.47,68.06z M205.33,156.43l-0.01-0.57v-0.02l-0.1-0.34l0.19-0.63c0.07-0.25,1.91-6.37,7-14.68c1.25-2.04,1.7-4.44,1.3-6.77l-4.6-26.39h-0.01 c-5.21-4.55-10.66-9.27-16.29-14.11c4.12,12.18,10.57,32.91,8.77,38.33c-1.77,5.26-4.25,8.94-5.43,10.51 c0.92,6.45,6.17,43.34,8.17,55.76c0.98,6.11,1.12,13.17,0.96,19.21c3.62-9.5,7.38-20.62,7.38-25.5c0-8.58-6.08-30.83-7.11-34.55 L205.33,156.43z M134.4,44.89c-3.63-2.81-7.17-5.51-10.62-8.08h-0.01c5,24.73,3.36,26.29,2.45,27.15c-1.54,1.45-6.89,7.14-8.49,8.83 c-0.62,3.32-3.36,19.34,0.03,28.62c2.47,6.74,2.74,21.02,2.52,31.84c3.43-9.53,6.89-20.67,6.45-25.08c-0.89-8.93,0-25.64,0.03-26.35 l0.03-0.58l0.31-0.49c0.06-0.1,5.96-9.76,8.54-17.81c0.59-1.83,0.82-3.85,0.82-5.88C136.46,51.84,134.96,46.63,134.4,44.89z" fill="#1B3067"/></g><g id="change4_1"><path d="M334.11,391.02c0,0-14.77,53.75-65.2,67.63c-50.43,13.88-91,3.09-91,3.09 c51.14,4.27,86.79-24.35,86.79-24.35c-7.09,2.07-22.45,2.36-22.45,2.36c13.59-3.25,28.06-19.49,28.06-19.49 c-28.06,19.49-62.91,18.9-62.91,18.9c53.16-14.77,61.51-45.56,61.51-45.56l-0.78-2.11l-62.2,12.95l11.97-32.93l29.08-10.32 l16.03,16.49l-7.76-20.92l-2.66-6.09l-14.38,1.96l-51.83-60.64l18.37-7.59c-5.61-20.67-13.24-28.71-13.24-28.71 c15.36,10.29,32.41,36.22,45.06,58.32l-0.81-1.85l-14.46-27.18c32.79,44.29,56.81,85.66,56.81,85.66 c-15.54-49.62-34.49-70.29-34.49-70.29c8.84-28.35,5.34-46.66,5.34-46.66c12.01,21.26,29.15,61.43,29.15,61.43 c-14.36-67.34-53.42-137.23-53.42-137.23l20.82,22.04l21.86,31.9l34.85,78.86L334.11,391.02z M158.38,439.21 c28.35-2.95,55.47-18.9,55.47-18.9c-102.24,17.72-157.07-12.48-157.07-12.48c55.52,63.72,131.72,31.38,131.72,31.38 C174.92,440.4,158.38,439.21,158.38,439.21z M161.78,206.43c0,0-33.52-32.57-60.11-45.82c0,0,12.18,2.11,30.31,8.01 c0,0-24.4-33.57-63.98-35.39c0,0-1.18-33.13,10.63-36.67c11.81-3.54,23.04,2.95,23.04,2.95s-15-27.7-44.71-12.67l-4.17,19.53 l-11.08,50.06l-14.84,32.78l-9.37,18.39v11.26c0,0,16.23-42.06,53.45-44.68C108.17,171.58,161.78,206.43,161.78,206.43z" fill="#979797"/></g><g id="change5_1"><path d="M412.21,429.11L412.21,429.11c-0.34-1.35-34.81-135.75-105.43-216.6c-0.22-6.27-1.69-33.33-10.57-42.21 c-8.74-8.74-33.76-24.07-37-26.05C246.54,132.66,137.68,33.46,93.55,10.05c-9.5-5.04-21.45-2.31-27.79,6.35 c-6.92,9.46-11.12,25.15-12.49,46.64c-3.77,59.08-11.33,92.18-27.9,122.14C6.69,218.95,2.59,255.42,13.53,290.65 c12.1,39.03,24.26,104.18,23.65,145.65l-0.03,2.25l2.07,0.82c0.41,0.17,44.85,17.65,112.06,25.47c21.47,2.5,43.4,3.77,65.18,3.77 c3.75,0,7.19-0.04,10.48-0.11l0.05,0.23l1.17-0.25c63.65-1.31,124.91-13.26,182.07-35.51l2.68-1.04L412.21,429.11z M152.18,458.38 c-58.46-6.79-99.28-20.91-108.44-24.28c0.15-42.17-12.03-106.89-23.97-145.38c-10.39-33.5-6.48-68.21,11.32-100.38 c15.79-28.57,23.56-59.6,27.68-110.63c1.16-2.3,6.46-11.79,16.31-15.47c6.71-2.51,14.29-1.82,22.53,2.03 c3.62,1.69,8.48,4.69,14.43,8.9c-0.92,5.33-3.03,20.42,0.53,30.13c3.79,10.33,1.67,43.09,1.65,43.42l-1.31,19.87l7.59-18.42 c1.3-3.16,12.68-31.16,11.74-40.56c-0.53-5.34-0.36-14.04-0.2-19.04c18.06,14.85,39.32,34.44,58.66,54.07 c1.24,8.8,6.25,43.86,8.16,55.75c2.12,13.17,0.01,31.7-0.02,31.89l-2.55,21.99l8.78-20.31c1.34-3.11,13.11-30.69,13.11-40.72 c0-5.5-2.07-15.38-4.14-23.85c22.12,24.49,39.14,46.82,49.33,64.74c20.58,36.2,47.52,106.75,66.54,159.73 c-1.88,3.83-3.97,7.57-6.2,11.12c-19.45,30.89-51.84,50.74-96.27,59.01C202.34,462.46,177.01,461.25,152.18,458.38z M90.48,15.81 c6.9,3.66,15.96,9.57,26.93,17.54c2.63,12.53,4.48,24.15,4.36,27.21c-1.72,1.71-4.96,5.13-6.57,6.83 c-6.02-4.22-11.01-7.26-14.83-9.04c-5.9-2.76-11.58-4.14-16.99-4.14c-3.66,0-7.2,0.63-10.59,1.9c-4.84,1.81-9.25,4.84-13.12,9.01 c0.04-0.56,0.07-1.11,0.11-1.67v0c1.29-20.24,5.07-34.78,11.24-43.21C75.46,14.19,83.82,12.28,90.48,15.81z M141.61,51.79 c12.78,10.11,27.41,22.17,43.52,35.88c6.45,18.04,11.31,35.54,11.31,40.78c0,0.61-0.06,0.9-0.11,1.04c-0.91,2.73-2.05,4.95-3,6.54 c-20.05-20.23-41.84-40.14-60.06-54.86c1.89-3.32,5.62-10.24,7.64-16.54C142.05,61.09,142.29,56.78,141.61,51.79z M211.56,139.66 c-5.24,8.57-7.09,14.88-7.1,14.92l-0.28,0.92l0.15,0.5l0.02,0.83l0.32,0.35c1.31,4.77,7.01,25.9,7.01,34.06 c0,3.26-1.88,10.2-5.33,19.8c-0.06-5.21-0.4-9.79-1.02-13.67c-1.99-12.34-7.27-49.38-8.11-55.33c1.18-1.61,3.6-5.29,5.34-10.46 c1.67-5.02-2.97-21.41-7.63-35.53c4.78,4.11,9.15,7.9,13.28,11.52l4.53,26.03C213.08,135.68,212.67,137.84,211.56,139.66z M134.7,62.64c-2.32,7.22-7.41,15.87-8.43,17.58l-0.44,0.7l-0.06,0.98c-0.21,4.15-0.83,18.3-0.02,26.36 c0.29,2.9-1.26,9.51-4.4,18.89c-0.01-9.68-0.57-20.42-2.64-26.09c-3.22-8.8-0.72-24.11-0.04-27.8l0.5-0.53 c2.08-2.2,6.41-6.79,7.75-8.04c1.21-1.13,2.85-2.67-1.64-25.52c2.99,2.25,5.91,4.5,8.28,6.33c0.64,2.09,1.92,6.82,1.92,11.58 C135.46,59.18,135.21,61.05,134.7,62.64z M333.76,383.23c-18.59-51.42-44.6-119.01-64.69-154.34 c-14.6-25.68-39.38-54.41-57.76-74.15c0.35-0.92,0.93-2.37,1.78-4.2c1.15-2.45,2.5-4.96,4.03-7.46c1.94-3.17,2.67-6.94,2.03-10.61 l-3.15-18.07c11.33,9.95,20.92,18.54,27.11,24.12c6.18,5.56,10.28,9.3,11.52,10.43l0.46,0.42l0.43,0.31 c0.27,0.16,27.4,16.59,36.05,25.24c5.87,5.88,8.45,27,8.7,38.92l0.02,1.21l0.8,0.9c13.21,15,26.08,33.02,38.26,53.57 C341.11,276.42,354.26,332.55,333.76,383.23z M238.87,165.69c1.25,3.69,12.64,36.13,28.87,37.94c0.69,0.08,1.41,0.12,2.12,0.12 c12.54,0,18.32-13.02,19.62-19.9l0.49-2.59l-53.41-22.42L238.87,165.69z M153.05,137.56c0.33,2.14,1.91,10.22,7.5,14.49 c2.79,2.13,6.13,2.97,9.95,2.52c0.33,0.49,0.67,0.97,1,1.44c0.21,0.33,0.42,0.66,0.63,1c0.65,1.04,1.33,2.11,2.15,3.17l1.99,2.56 l-0.2-3.23c-0.09-1.49-0.31-3.07-0.74-5.19c-0.23-0.82-0.47-1.64-0.74-2.45l-0.14-0.41c-0.23-0.69-0.47-1.41-0.81-2.06 c-0.75-1.62-1.51-3.2-2.54-4.62c-0.12-0.17-0.23-0.34-0.35-0.51c-0.37-0.56-0.76-1.13-1.24-1.66l-1.74-1.98 c-2.63-2.63-5.71-4.7-8.9-5.99c-3.8-1.5-7.36-1.94-10.58-1.31l-3.37,0.66l3.2,1.25C149.79,135.89,151.41,136.65,153.05,137.56z M230.25,296.99c-16.88-27.67-36.69-50.03-58.9-66.45c-27.88-20.6-59.56-31.82-94.17-33.36c-10.79-0.48-21.26,1.79-30.28,6.57 c-16.37,8.68-33.96,27.78-24.83,69.48c8.29,37.86,8.82,39.99,11.37,50.19l0.19,0.76c2.04,8.2,5.44,21.92,14.57,60.8l0.31,1.32 l1.17,0.73c1.98,1.19,20.34,11.84,55.47,18.27c16.92,3.09,35.16,4.66,54.23,4.66c34.08,0,70.31-5,107.68-14.85l3.04-0.78l-0.67-3.07 C269.33,390.79,258.87,343.93,230.25,296.99z M260.92,389.96c-9.02,2.29-17.75,4.24-26.17,5.88l12.94-25.3L260.92,389.96z M74.42,390.66l13.16-21.63l14.85,28.53l14.06-24.61l13.83,28.73l17.65-26.77l17.05,27.16l18.25-26.7L201,401.04 c-40.7,4.58-72.49,1.88-94.38-2.1v0C93.54,396.56,82.77,393.52,74.42,390.66z M74.09,390.54c-9.36-3.23-15.63-6.23-18.63-7.79 l6.21-16.24L74.09,390.54z M76.88,203.71c75.42,3.37,121.96,54.38,147.73,96.58c3.77,6.18,7.39,12.62,10.83,19.29l-21.11-2.63 l-1.32-28.43l-25.74,2.38l-3.64-33.64l-30.29,10.29l-12.35-36.43l-25.15,22.45l-16.22-36.72L77.46,249.5l-20.22-36.97l-10.3,37.75 l-16.46-18.44v26.74l-4.28-3.53c-1.06-26.63,12.31-39.46,23.76-45.53C57.94,205.3,67.25,203.28,76.88,203.71z M235.78,343.13v-22.87 c4.12,8.04,7.98,16.4,11.55,25.03L235.78,343.13z M71.71,275.45c0.5,0.05,1.01,0.11,1.51,0.18c-1.51,21.91,4.95,40.18,5.02,40.37 l1.09,3.04l0.81-3.13c3.37-12.95,8.42-25.87,12.2-34.72c0.65,0.29,1.25,0.57,1.82,0.84c-6.07,27.31,3.06,53.19,3.15,53.45l1.1,3.04 l0.81-3.13c4.4-16.94,11.81-34.04,14.71-40.42c0.5,0.42,1.04,0.86,1.57,1.32c-6.46,27.63,2.85,54.04,2.95,54.3l1.09,3.04l0.81-3.13 c3.68-14.12,9.41-28.28,12.88-36.28c3.84,4.5,7.72,9.46,11.55,14.77c-2.51,6.36-10.23,26.08-18.48,49.29l-9.33-19.39l-14.3,25.01 l-14.68-28.19l-13.28,21.84l-13.96-27.02l-8.64,22.6c-7.25-30.69-10.26-42.86-12.09-50.22l-0.3-1.2 c-2.13-8.55-2.85-11.48-8.05-35.09C36.38,283.01,51.04,273.31,71.71,275.45z M234.14,395.96c-11.56,2.23-22.55,3.88-32.97,5.06 l16.8-27.69L234.14,395.96z" fill="#0D1016"/></g></svg>